<svg width="15" height="22" viewBox="0 0 15 22" fill="none" xmlns="http://www.w3.org/2000/svg">
<path fill-rule="evenodd" clip-rule="evenodd" d="M14.4752 1.42239C14.6007 1.25302 14.5546 1.01797 14.3735 0.903516L13.708 0.483059C13.5313 0.37144 13.2938 0.415077 13.173 0.581332C13.1315 0.63836 13.1471 0.716783 13.2074 0.755382L14.2994 1.45339C14.3571 1.49028 14.4351 1.47653 14.4752 1.42239Z" fill="#2B2A2C"/>
<path fill-rule="evenodd" clip-rule="evenodd" d="M12.7386 1.13493C12.6022 1.04771 12.4175 1.08356 12.3275 1.21474L11.6312 2.22927C11.5876 2.29279 11.6044 2.37791 11.6692 2.42184L13.3576 3.56574C13.4273 3.61295 13.5242 3.59399 13.5689 3.52441L14.2664 2.43788C14.3494 2.30866 14.3108 2.13987 14.1789 2.05559L12.7386 1.13493Z" fill="#303236"/>
<path fill-rule="evenodd" clip-rule="evenodd" d="M4.65241 17.515C4.60848 17.584 4.51311 17.6037 4.44327 17.5583L2.45388 16.2658C2.38788 16.2229 2.36947 16.1377 2.41229 16.0733L11.1491 2.94314C11.1944 2.87501 11.2902 2.85704 11.3591 2.90373L13.0651 4.05962C13.1284 4.10249 13.1462 4.18486 13.1058 4.24819L4.65241 17.515Z" fill="#EB2F2F"/>
<path fill-rule="evenodd" clip-rule="evenodd" d="M1.77032 20.5852C1.83178 20.6225 1.91245 20.6114 1.96042 20.5591L4.10996 18.2161C4.16847 18.1523 4.15534 18.0539 4.08195 18.0063L2.20564 16.7872C2.12942 16.7377 2.02489 16.7663 1.98758 16.8468L0.639394 19.7576C0.609788 19.8216 0.633594 19.8966 0.695367 19.934L1.77032 20.5852Z" fill="#1E1F21"/>
<path fill-rule="evenodd" clip-rule="evenodd" d="M0.662227 20.5824C0.569494 20.5262 0.447324 20.5829 0.436243 20.6873L0.36368 21.371C0.357722 21.4271 0.419687 21.4669 0.47181 21.4404L1.12138 21.1103C1.22137 21.0594 1.22676 20.9244 1.1311 20.8664L0.662227 20.5824Z" fill="#EBEBEB"/>
</svg>
