<svg width="14" height="22" viewBox="0 0 14 22" fill="none" xmlns="http://www.w3.org/2000/svg">
<path fill-rule="evenodd" clip-rule="evenodd" d="M13.51 1.42239C13.6271 1.25302 13.5841 1.01797 13.4151 0.903516L12.7939 0.483059C12.6291 0.37144 12.4073 0.415077 12.2946 0.581332C12.2559 0.63836 12.2704 0.716783 12.3267 0.755382L13.3459 1.45339C13.3998 1.49028 13.4725 1.47653 13.51 1.42239Z" fill="black"/>
<path fill-rule="evenodd" clip-rule="evenodd" d="M11.8892 1.13493C11.7619 1.04771 11.5895 1.08356 11.5055 1.21474L10.8556 2.22927C10.8149 2.29279 10.8306 2.37791 10.8911 2.42184L12.4669 3.56574C12.5319 3.61295 12.6224 3.59399 12.6641 3.52441L13.3152 2.43788C13.3926 2.30866 13.3565 2.13987 13.2334 2.05559L11.8892 1.13493Z" fill="black"/>
<path fill-rule="evenodd" clip-rule="evenodd" d="M4.34206 17.515C4.30105 17.584 4.21204 17.6037 4.14685 17.5583L2.2901 16.2658C2.2285 16.2229 2.21131 16.1377 2.25128 16.0733L10.4056 2.94314C10.4479 2.87501 10.5373 2.85704 10.6016 2.90373L12.1939 4.05962C12.253 4.10249 12.2696 4.18486 12.2319 4.24819L4.34206 17.515Z" fill="black"/>
<path fill-rule="evenodd" clip-rule="evenodd" d="M1.65211 20.5852C1.70946 20.6225 1.78476 20.6114 1.82953 20.5591L3.83577 18.2161C3.89038 18.1523 3.87812 18.0539 3.80962 18.0063L2.0584 16.7872C1.98726 16.7377 1.8897 16.7663 1.85488 16.8468L0.596573 19.7576C0.568941 19.8216 0.59116 19.8966 0.648814 19.934L1.65211 20.5852Z" fill="black"/>
<path fill-rule="evenodd" clip-rule="evenodd" d="M0.617883 20.5824C0.531333 20.5262 0.417307 20.5829 0.406965 20.6873L0.339239 21.371C0.333678 21.4271 0.391512 21.4669 0.440161 21.4404L1.04643 21.1103C1.13975 21.0594 1.14478 20.9244 1.0555 20.8664L0.617883 20.5824Z" fill="black"/>
</svg>
